<svg width="30" height="30" viewBox="0 0 30 30" fill="none" xmlns="http://www.w3.org/2000/svg">
<path d="M23.75 7.5H6.25C4.86929 7.5 3.75 8.61929 3.75 10V23.75C3.75 25.1307 4.86929 26.25 6.25 26.25H23.75C25.1307 26.25 26.25 25.1307 26.25 23.75V10C26.25 8.61929 25.1307 7.5 23.75 7.5Z" stroke="#1E1E1E"/>
<path d="M3.75 12.5C3.75 10.1425 3.75 8.965 4.4825 8.2325C5.215 7.5 6.3925 7.5 8.75 7.5H21.25C23.6075 7.5 24.785 7.5 25.5175 8.2325C26.25 8.965 26.25 10.1425 26.25 12.5H3.75Z" fill="#1E1E1E"/>
<path d="M8.75 3.75V7.5M21.25 3.75V7.5" stroke="#1E1E1E" stroke-linecap="round"/>
</svg>
