<svg width="30" height="30" viewBox="0 0 30 30" fill="none" xmlns="http://www.w3.org/2000/svg">
<path fill-rule="evenodd" clip-rule="evenodd" d="M24.375 21.6881C24.375 23.175 23.175 24.375 21.6881 24.375H8.31188C6.825 24.375 5.625 23.175 5.625 21.6881V8.31188C5.625 6.825 6.825 5.625 8.31188 5.625H11.25V4.69688C11.2515 4.47628 11.3293 4.26299 11.47 4.09315C11.6108 3.92332 11.806 3.80738 12.0225 3.765L12.1875 3.75C12.705 3.75 13.125 4.15125 13.125 4.69688V5.625H16.875V4.69688C16.8765 4.47628 16.9543 4.26299 17.095 4.09315C17.2358 3.92332 17.431 3.80738 17.6475 3.765L17.8125 3.75C18.33 3.75 18.75 4.15125 18.75 4.69688V5.625H21.6881C23.175 5.625 24.375 6.825 24.375 8.31188V21.6881ZM7.5 11.25V21.2437C7.5 21.9375 8.0625 22.5 8.75625 22.5H21.2437C21.9375 22.5 22.5 21.9375 22.5 21.2437V11.25H7.5ZM10.3125 18.75C10.7719 18.75 11.1563 19.0931 11.235 19.5225L11.25 19.6875C11.25 20.1469 10.9069 20.5312 10.4775 20.61L10.3125 20.625C10.0646 20.6226 9.82758 20.523 9.65229 20.3477C9.477 20.1724 9.37744 19.9354 9.375 19.6875C9.375 19.2281 9.71813 18.8438 10.1475 18.765L10.3125 18.75ZM15 18.75C15.4594 18.75 15.8437 19.0931 15.9225 19.5225L15.9375 19.6875C15.9375 20.1469 15.5944 20.5312 15.165 20.61L15 20.625C14.7521 20.6226 14.5151 20.523 14.3398 20.3477C14.1645 20.1724 14.0649 19.9354 14.0625 19.6875C14.0625 19.2281 14.4056 18.8438 14.835 18.765L15 18.75ZM19.6875 18.75C20.1469 18.75 20.5312 19.0931 20.61 19.5225L20.625 19.6875C20.625 20.1469 20.2819 20.5312 19.8525 20.61L19.6875 20.625C19.4396 20.6226 19.2026 20.523 19.0273 20.3477C18.852 20.1724 18.7524 19.9354 18.75 19.6875C18.75 19.2281 19.0931 18.8438 19.5225 18.765L19.6875 18.75ZM10.3125 15.9375C10.7719 15.9375 11.1563 16.2806 11.235 16.71L11.25 16.875C11.25 17.3344 10.9069 17.7187 10.4775 17.7975L10.3125 17.8125C10.0646 17.8101 9.82758 17.7105 9.65229 17.5352C9.477 17.3599 9.37744 17.1229 9.375 16.875C9.375 16.4156 9.71813 16.0313 10.1475 15.9525L10.3125 15.9375ZM15 15.9375C15.4594 15.9375 15.8437 16.2806 15.9225 16.71L15.9375 16.875C15.9375 17.3344 15.5944 17.7187 15.165 17.7975L15 17.8125C14.7521 17.8101 14.5151 17.7105 14.3398 17.5352C14.1645 17.3599 14.0649 17.1229 14.0625 16.875C14.0625 16.4156 14.4056 16.0313 14.835 15.9525L15 15.9375ZM19.6875 15.9375C20.1469 15.9375 20.5312 16.2806 20.61 16.71L20.625 16.875C20.625 17.3344 20.2819 17.7187 19.8525 17.7975L19.6875 17.8125C19.4396 17.8101 19.2026 17.7105 19.0273 17.5352C18.852 17.3599 18.7524 17.1229 18.75 16.875C18.75 16.4156 19.0931 16.0313 19.5225 15.9525L19.6875 15.9375ZM10.3125 13.125C10.7719 13.125 11.1563 13.4681 11.235 13.8975L11.25 14.0625C11.25 14.5219 10.9069 14.9063 10.4775 14.985L10.3125 15C10.0646 14.9976 9.82758 14.898 9.65229 14.7227C9.477 14.5474 9.37744 14.3104 9.375 14.0625C9.375 13.6031 9.71813 13.2187 10.1475 13.14L10.3125 13.125ZM15 13.125C15.4594 13.125 15.8437 13.4681 15.9225 13.8975L15.9375 14.0625C15.9375 14.5219 15.5944 14.9063 15.165 14.985L15 15C14.7521 14.9976 14.5151 14.898 14.3398 14.7227C14.1645 14.5474 14.0649 14.3104 14.0625 14.0625C14.0625 13.6031 14.4056 13.2187 14.835 13.14L15 13.125ZM19.6875 13.125C20.1469 13.125 20.5312 13.4681 20.61 13.8975L20.625 14.0625C20.625 14.5219 20.2819 14.9063 19.8525 14.985L19.6875 15C19.4396 14.9976 19.2026 14.898 19.0273 14.7227C18.852 14.5474 18.7524 14.3104 18.75 14.0625C18.75 13.6031 19.0931 13.2187 19.5225 13.14L19.6875 13.125ZM7.5 9.375H22.5V8.75625C22.5 8.0625 21.9375 7.5 21.2437 7.5H8.75625C8.0625 7.5 7.5 8.0625 7.5 8.75625V9.375Z" fill="#1E1E1E"/>
</svg>
