<svg width="30" height="30" viewBox="0 0 30 30" fill="none" xmlns="http://www.w3.org/2000/svg">
<path opacity="0.5" fill-rule="evenodd" clip-rule="evenodd" d="M15 3.75C13.5226 3.75 12.0597 4.04099 10.6948 4.60636C9.3299 5.17172 8.08971 6.00039 7.04505 7.04505C6.00039 8.08971 5.17172 9.3299 4.60636 10.6948C4.04099 12.0597 3.75 13.5226 3.75 15C3.75 16.4774 4.04099 17.9403 4.60636 19.3052C5.17172 20.6701 6.00039 21.9103 7.04505 22.955C8.08971 23.9996 9.3299 24.8283 10.6948 25.3936C12.0597 25.959 13.5226 26.25 15 26.25C17.9837 26.25 20.8452 25.0647 22.955 22.955C25.0647 20.8452 26.25 17.9837 26.25 15C26.25 12.0163 25.0647 9.15483 22.955 7.04505C20.8452 4.93526 17.9837 3.75 15 3.75ZM1.25 15C1.25 7.40625 7.40625 1.25 15 1.25C22.5937 1.25 28.75 7.40625 28.75 15C28.75 22.5937 22.5937 28.75 15 28.75C7.40625 28.75 1.25 22.5937 1.25 15Z" fill="#FF0000"/>
<path d="M19.1162 9.11624L9.11624 19.1162L10.8837 20.8837L20.8837 10.8837L19.1162 9.11624Z" fill="#FF0000"/>
<path d="M10.8837 9.11624L20.8837 19.1162L19.1162 20.8837L9.11624 10.8837L10.8837 9.11624Z" fill="#FF0000"/>
</svg>
