<svg width="30" height="30" viewBox="0 0 30 30" fill="none" xmlns="http://www.w3.org/2000/svg">
<path d="M6.93999 26.21C6.50854 26.1979 6.08393 26.0992 5.69138 25.9197C5.29882 25.7403 4.94633 25.4838 4.65484 25.1655C4.36334 24.8472 4.13879 24.4736 3.99451 24.0668C3.85024 23.66 3.78919 23.2283 3.81499 22.7975C3.79999 20.1063 3.81499 17.415 3.81499 14.7238C3.81499 14.558 3.88083 14.399 3.99804 14.2818C4.11525 14.1646 4.27423 14.0988 4.43999 14.0988C4.60575 14.0988 4.76472 14.1646 4.88193 14.2818C4.99914 14.399 5.06499 14.558 5.06499 14.7238C5.06499 17.4738 5.02499 20.2238 5.06499 22.9738C5.08499 24.3575 6.12499 24.96 7.36249 24.96H22.9412C23.3345 24.969 23.7212 24.858 24.0499 24.6418C24.3785 24.4257 24.6336 24.1146 24.7812 23.75C24.9017 23.3189 24.9441 22.8698 24.9062 22.4238V14.7238C24.9062 14.558 24.9721 14.399 25.0893 14.2818C25.2065 14.1646 25.3655 14.0988 25.5312 14.0988C25.697 14.0988 25.856 14.1646 25.9732 14.2818C26.0904 14.399 26.1562 14.558 26.1562 14.7238C26.1562 17.5038 26.2625 20.305 26.1562 23.0825C26.1455 23.5078 26.0502 23.9268 25.8761 24.315C25.7019 24.7032 25.4522 25.0528 25.1416 25.3436C24.8311 25.6345 24.4657 25.8606 24.067 26.0089C23.6682 26.1572 23.2439 26.2247 22.8187 26.2075L6.93999 26.21Z" fill="#1E1E1E"/>
<path d="M14.5375 19.7725C14.6406 19.8778 14.7802 19.9396 14.9275 19.945C14.945 19.945 14.9613 19.9512 14.98 19.9525C14.9988 19.9537 15.0138 19.9525 15.0313 19.945C15.1786 19.9396 15.3182 19.8778 15.4213 19.7725L20.0075 15.1862C20.1214 15.0684 20.1844 14.9105 20.1829 14.7466C20.1815 14.5827 20.1158 14.426 19.9999 14.3101C19.884 14.1942 19.7273 14.1285 19.5634 14.1271C19.3995 14.1256 19.2416 14.1886 19.1238 14.3025L15.605 17.8212V4.39374C15.605 4.22798 15.5392 4.06901 15.422 3.9518C15.3047 3.83459 15.1458 3.76874 14.98 3.76874C14.8143 3.76874 14.6553 3.83459 14.5381 3.9518C14.4209 4.06901 14.355 4.22798 14.355 4.39374V17.8212L10.835 14.3025C10.7171 14.1886 10.5593 14.1256 10.3954 14.1271C10.2315 14.1285 10.0748 14.1942 9.95888 14.3101C9.843 14.426 9.77727 14.5827 9.77584 14.7466C9.77442 14.9105 9.83741 15.0684 9.95126 15.1862L14.5375 19.7725Z" fill="#1E1E1E"/>
</svg>
