<svg width="30" height="30" viewBox="0 0 30 30" fill="none" xmlns="http://www.w3.org/2000/svg">
<path d="M3.75 15C3.75 16.4774 4.04099 17.9403 4.60636 19.3052C5.17172 20.6701 6.00039 21.9103 7.04505 22.955C8.08971 23.9996 9.3299 24.8283 10.6948 25.3936C12.0597 25.959 13.5226 26.25 15 26.25C16.4774 26.25 17.9403 25.959 19.3052 25.3936C20.6701 24.8283 21.9103 23.9996 22.955 22.955C23.9996 21.9103 24.8283 20.6701 25.3936 19.3052C25.959 17.9403 26.25 16.4774 26.25 15C26.25 13.5226 25.959 12.0597 25.3936 10.6948C24.8283 9.3299 23.9996 8.08971 22.955 7.04505C21.9103 6.00039 20.6701 5.17172 19.3052 4.60636C17.9403 4.04099 16.4774 3.75 15 3.75C13.5226 3.75 12.0597 4.04099 10.6948 4.60636C9.3299 5.17172 8.08971 6.00039 7.04505 7.04505C6.00039 8.08971 5.17172 9.3299 4.60636 10.6948C4.04099 12.0597 3.75 13.5226 3.75 15Z" stroke="#1E1E1E" stroke-width="2" stroke-linecap="round" stroke-linejoin="round"/>
<path d="M10 15C10 17.9837 10.5268 20.8452 11.4645 22.955C12.4021 25.0647 13.6739 26.25 15 26.25C16.3261 26.25 17.5979 25.0647 18.5355 22.955C19.4732 20.8452 20 17.9837 20 15C20 12.0163 19.4732 9.15483 18.5355 7.04505C17.5979 4.93526 16.3261 3.75 15 3.75C13.6739 3.75 12.4021 4.93526 11.4645 7.04505C10.5268 9.15483 10 12.0163 10 15Z" stroke="#1E1E1E" stroke-width="2" stroke-linecap="round" stroke-linejoin="round"/>
<path d="M3.75 15C3.75 17.7625 8.7875 20 15 20C21.2125 20 26.25 17.7625 26.25 15C26.25 12.2375 21.2125 10 15 10C8.7875 10 3.75 12.2375 3.75 15Z" stroke="#1E1E1E" stroke-width="2" stroke-linecap="round" stroke-linejoin="round"/>
</svg>
