<svg width="30" height="30" viewBox="0 0 30 30" fill="none" xmlns="http://www.w3.org/2000/svg">
<path d="M15.3258 5.93438C15.2385 5.85093 15.1225 5.80435 15.0018 5.80435C14.881 5.80435 14.765 5.85093 14.6777 5.93438L3.89063 16.2393C3.84481 16.2831 3.80837 16.3357 3.78349 16.3941C3.75862 16.4524 3.74583 16.5151 3.7459 16.5785L3.74414 26.25C3.74414 26.7473 3.94168 27.2242 4.29332 27.5758C4.64495 27.9275 5.12186 28.125 5.61914 28.125H11.25C11.4986 28.125 11.7371 28.0262 11.9129 27.8504C12.0887 27.6746 12.1875 27.4361 12.1875 27.1875V19.2188C12.1875 19.0944 12.2369 18.9752 12.3248 18.8873C12.4127 18.7994 12.5319 18.75 12.6563 18.75H17.3438C17.4681 18.75 17.5873 18.7994 17.6752 18.8873C17.7631 18.9752 17.8125 19.0944 17.8125 19.2188V27.1875C17.8125 27.4361 17.9113 27.6746 18.0871 27.8504C18.2629 28.0262 18.5014 28.125 18.75 28.125H24.3785C24.8758 28.125 25.3527 27.9275 25.7043 27.5758C26.056 27.2242 26.2535 26.7473 26.2535 26.25V16.5785C26.2536 16.5151 26.2408 16.4524 26.2159 16.3941C26.191 16.3357 26.1546 16.2831 26.1088 16.2393L15.3258 5.93438Z" fill="#1E1E1E"/>
<path d="M28.7642 14.3057L24.3814 10.1127V3.75C24.3814 3.50136 24.2827 3.2629 24.1068 3.08709C23.931 2.91127 23.6926 2.8125 23.4439 2.8125H20.6314C20.3828 2.8125 20.1443 2.91127 19.9685 3.08709C19.7927 3.2629 19.6939 3.50136 19.6939 3.75V5.625L16.3002 2.38008C15.9826 2.05898 15.5103 1.875 15 1.875C14.4914 1.875 14.0203 2.05898 13.7027 2.38066L1.23984 14.3045C0.875382 14.6561 0.829679 15.2344 1.16132 15.6152C1.2446 15.7114 1.34657 15.7896 1.46103 15.845C1.57548 15.9005 1.70003 15.9321 1.82709 15.9379C1.95414 15.9437 2.08105 15.9236 2.2001 15.8788C2.31914 15.834 2.42782 15.7655 2.51952 15.6773L14.6777 4.05937C14.765 3.97593 14.881 3.92935 15.0017 3.92935C15.1225 3.92935 15.2385 3.97593 15.3258 4.05937L27.4851 15.6773C27.6643 15.8491 27.9042 15.9429 28.1523 15.938C28.4004 15.9332 28.6365 15.8302 28.8088 15.6516C29.1685 15.2789 29.1387 14.6637 28.7642 14.3057Z" fill="#1E1E1E"/>
</svg>
