<svg width="45" height="45" viewBox="0 0 45 45" fill="none" xmlns="http://www.w3.org/2000/svg">
<path d="M23.625 25.7362L23.7808 25.9013L37.1769 41.8631C37.391 42.1182 37.536 42.4323 37.596 42.7708C37.6561 43.1094 37.6288 43.4593 37.5172 43.7822C37.4055 44.105 37.2139 44.3883 36.9633 44.6008C36.7128 44.8133 36.413 44.9469 36.0969 44.9869L35.8961 45H9.10559C8.78858 45.0003 8.47759 44.9063 8.20654 44.7282C7.93549 44.5501 7.71481 44.2947 7.56855 43.99C7.4223 43.6853 7.3561 43.343 7.37718 43.0003C7.39826 42.6577 7.50581 42.3278 7.68809 42.0469L7.82482 41.8631L21.221 25.9013C21.5235 25.5403 21.9439 25.3212 22.393 25.2904C22.8421 25.2596 23.2846 25.4195 23.6267 25.7362M22.5 28.5562L11.0596 42.1875H33.9404L22.5 28.5562ZM22.5 0C34.9269 0 45 10.9125 45 24.375C45.0078 30.282 43.0276 35.9896 39.4304 40.4287L39.2729 40.1944L39.0963 39.9713L37.6961 38.3025C40.7428 34.4133 42.4117 29.476 42.4038 24.375C42.4038 12.4669 33.4921 2.8125 22.5 2.8125C11.5079 2.8125 2.59617 12.4669 2.59617 24.375C2.59617 29.6831 4.36674 34.545 7.30386 38.3006L5.90194 39.9713C5.78112 40.1188 5.67496 40.2797 5.58521 40.4512C1.97896 36.0078 -0.00694226 30.2917 1.82353e-05 24.375C1.82353e-05 10.9125 10.0731 0 22.5 0ZM22.5 7.5C25.422 7.49984 28.2851 8.39003 30.7623 10.0689C33.2394 11.7478 35.2308 14.1476 36.5088 16.9943C37.7868 19.8409 38.2999 23.0196 37.9896 26.1672C37.6793 29.3148 36.558 32.3044 34.7538 34.7944L32.9781 32.6794C34.3935 30.583 35.2453 28.103 35.4391 25.5143C35.633 22.9255 35.1612 20.3292 34.0762 18.0131C32.9912 15.6971 31.3353 13.7518 29.2921 12.3929C27.249 11.0341 24.8983 10.3148 22.5009 10.3148C20.1034 10.3148 17.7528 11.0341 15.7096 12.3929C13.6664 13.7518 12.0105 15.6971 10.9255 18.0131C9.8405 20.3292 9.36877 22.9255 9.5626 25.5143C9.75643 28.103 10.6083 30.583 12.0237 32.6794L10.2462 34.7944C8.442 32.3044 7.3207 29.3148 7.01037 26.1672C6.70005 23.0196 7.2132 19.8409 8.49121 16.9943C9.76922 14.1476 11.7605 11.7478 14.2377 10.0689C16.7149 8.39003 19.578 7.49984 22.5 7.5ZM22.5 15C24.0228 14.9996 25.5187 15.4346 26.8367 16.261C28.1546 17.0873 29.248 18.2758 30.0063 19.7064C30.7646 21.1369 31.1611 22.759 31.1556 24.4086C31.1502 26.0583 30.743 27.6772 29.9752 29.1019L28.106 26.8706C28.4835 25.8739 28.6287 24.7918 28.5287 23.7199C28.4288 22.648 28.0868 21.6192 27.5329 20.7244C26.979 19.8296 26.2303 19.0963 25.3529 18.5892C24.4754 18.0821 23.4962 17.8169 22.5017 17.8169C21.5072 17.8169 20.528 18.0821 19.6506 18.5892C18.7731 19.0963 18.0244 19.8296 17.4705 20.7244C16.9166 21.6192 16.5746 22.648 16.4747 23.7199C16.3748 24.7918 16.52 25.8739 16.8975 26.8706L15.0231 29.1C14.2557 27.6753 13.8488 26.0564 13.8436 24.4068C13.8385 22.7573 14.2352 21.1354 14.9936 19.7051C15.7521 18.2747 16.8456 17.0865 18.1635 16.2604C19.4815 15.4343 20.9773 14.9995 22.5 15Z" fill="url(#paint0_linear_170_251)"/>
<defs>
<linearGradient id="paint0_linear_170_251" x1="44.37" y1="1.16667" x2="-7.15207" y2="15.6501" gradientUnits="userSpaceOnUse">
<stop offset="0.131667" stop-color="#6475DE"/>
<stop offset="0.482405" stop-color="#3D77CF"/>
<stop offset="0.731667" stop-color="#6475DE"/>
</linearGradient>
</defs>
</svg>
