<svg width="30" height="30" viewBox="0 0 30 30" fill="none" xmlns="http://www.w3.org/2000/svg">
<path d="M4.9125 21.1031L6.25312 19.7719C4.7852 18.4539 3.63185 16.8231 2.87812 15C4.78125 10.2469 10.0312 6.5625 15 6.5625C16.2786 6.57972 17.5456 6.80778 18.75 7.2375L20.2031 5.775C18.5558 5.07828 16.7885 4.70891 15 4.6875C11.9442 4.80241 8.98911 5.81021 6.49988 7.58633C4.01064 9.36245 2.0964 11.829 0.993748 14.6813C0.91928 14.8872 0.91928 15.1128 0.993748 15.3188C1.82648 17.5285 3.16915 19.5103 4.9125 21.1031Z" fill="#1E1E1E"/>
<path d="M11.25 14.7469C11.3152 13.8485 11.7016 13.0036 12.3385 12.3666C12.9754 11.7297 13.8204 11.3433 14.7188 11.2781L16.4156 9.57188C15.4648 9.32151 14.4649 9.32476 13.5157 9.58131C12.5665 9.83785 11.7011 10.3387 11.0059 11.034C10.3106 11.7293 9.80973 12.5946 9.55318 13.5438C9.29664 14.493 9.29339 15.4929 9.54375 16.4438L11.25 14.7469ZM29.0063 14.6812C27.9312 11.8811 26.0607 9.45659 23.625 7.70625L28.125 3.19688L26.8031 1.875L1.875 26.8031L3.19688 28.125L7.97813 23.3437C10.1101 24.594 12.5289 25.2722 15 25.3125C18.0558 25.1976 21.0109 24.1898 23.5001 22.4137C25.9894 20.6375 27.9036 18.171 29.0063 15.3188C29.0807 15.1128 29.0807 14.8872 29.0063 14.6812ZM18.75 15C18.7461 15.6563 18.5699 16.3002 18.2392 16.8671C17.9084 17.434 17.4347 17.9042 16.8653 18.2307C16.2958 18.5571 15.6507 18.7284 14.9944 18.7274C14.338 18.7264 13.6934 18.5532 13.125 18.225L18.225 13.125C18.562 13.6929 18.7431 14.3397 18.75 15ZM15 23.4375C13.0332 23.4031 11.1037 22.895 9.375 21.9563L11.7563 19.575C12.8394 20.3265 14.1521 20.6738 15.4651 20.5561C16.7782 20.4384 18.0082 19.8632 18.9404 18.931C19.8726 17.9988 20.4477 16.7688 20.5654 15.4557C20.6831 14.1427 20.3359 12.83 19.5844 11.7469L22.275 9.05625C24.4262 10.5328 26.1084 12.5957 27.1219 15C25.2188 19.7531 19.9688 23.4375 15 23.4375Z" fill="#1E1E1E"/>
</svg>
