<svg width="30" height="30" viewBox="0 0 30 30" fill="none" xmlns="http://www.w3.org/2000/svg">
<path d="M14.375 3.75H11.75C8.95 3.75 7.55 3.75 6.48 4.295C5.53923 4.77436 4.77436 5.53923 4.295 6.48C3.75 7.55 3.75 8.95 3.75 11.75V18.25C3.75 21.05 3.75 22.45 4.295 23.52C4.77436 24.4608 5.53923 25.2256 6.48 25.705C7.55 26.25 8.95 26.25 11.75 26.25H18.25C21.05 26.25 22.45 26.25 23.52 25.705C24.4608 25.2256 25.2256 24.4608 25.705 23.52C26.25 22.45 26.25 21.05 26.25 18.25V15.625M26.25 7.1875C26.25 8.09918 25.8878 8.97352 25.2432 9.61818C24.5985 10.2628 23.7242 10.625 22.8125 10.625C21.9008 10.625 21.0265 10.2628 20.3818 9.61818C19.7372 8.97352 19.375 8.09918 19.375 7.1875C19.375 6.27582 19.7372 5.40148 20.3818 4.75682C21.0265 4.11216 21.9008 3.75 22.8125 3.75C23.7242 3.75 24.5985 4.11216 25.2432 4.75682C25.8878 5.40148 26.25 6.27582 26.25 7.1875Z" stroke="#1E1E1E" stroke-width="1.5" stroke-linecap="round" stroke-linejoin="round"/>
</svg>
