<svg width="30" height="30" viewBox="0 0 30 30" fill="none" xmlns="http://www.w3.org/2000/svg">
<path d="M4.375 8.75C4.375 7.0924 5.03348 5.50269 6.20558 4.33058C7.37769 3.15848 8.9674 2.5 10.625 2.5C12.2826 2.5 13.8723 3.15848 15.0444 4.33058C16.2165 5.50269 16.875 7.0924 16.875 8.75C16.875 10.4076 16.2165 11.9973 15.0444 13.1694C13.8723 14.3415 12.2826 15 10.625 15C8.9674 15 7.37769 14.3415 6.20558 13.1694C5.03348 11.9973 4.375 10.4076 4.375 8.75ZM6.25 17.5C4.5924 17.5 3.00269 18.1585 1.83058 19.3306C0.65848 20.5027 0 22.0924 0 23.75L0 26.25H21.25V23.75C21.25 22.0924 20.5915 20.5027 19.4194 19.3306C18.2473 18.1585 16.6576 17.5 15 17.5H6.25ZM30 26.25H23.75V23.75C23.75 21.3013 22.745 19.0875 21.125 17.5H23.75C24.5708 17.5 25.3835 17.6617 26.1418 17.9758C26.9001 18.2898 27.5891 18.7502 28.1694 19.3306C28.7498 19.9109 29.2102 20.5999 29.5242 21.3582C29.8383 22.1165 30 22.9292 30 23.75V26.25ZM19.375 15C18.612 15.0003 17.8553 14.861 17.1425 14.5887C18.5833 12.9857 19.3787 10.9054 19.375 8.75C19.3783 6.59444 18.5825 4.51416 17.1413 2.91125C17.9976 2.58425 18.9153 2.4496 19.8295 2.51684C20.7436 2.58409 21.6318 2.85159 22.431 3.30038C23.2303 3.74917 23.921 4.36826 24.4543 5.11378C24.9876 5.8593 25.3503 6.71299 25.5169 7.61436C25.6834 8.51572 25.6497 9.44268 25.418 10.3295C25.1864 11.2164 24.7625 12.0415 24.1764 12.7462C23.5903 13.451 22.8564 14.0182 22.0266 14.4077C21.1969 14.7972 20.2916 14.9994 19.375 15Z" fill="#1E1E1E"/>
</svg>
