<svg width="30" height="30" viewBox="0 0 30 30" fill="none" xmlns="http://www.w3.org/2000/svg">
<path d="M15.3 4.91999C20.595 4.91999 24.945 8.83498 25.68 13.92H28.8L23.55 19.92L18.3 13.92H21.78C21.4442 12.4518 20.6206 11.1407 19.4437 10.2009C18.2669 9.26099 16.8061 8.74777 15.3 8.74499C13.125 8.74499 11.205 9.80999 9.99001 11.415L7.42501 8.48999C8.40709 7.3677 9.61791 6.4685 10.9762 5.85276C12.3344 5.23701 13.8087 4.91897 15.3 4.91999ZM14.7 25.08C9.42001 25.08 5.05501 21.165 4.32001 16.08H1.20001L6.45001 10.08C8.20501 12.075 9.94501 14.085 11.7 16.08H8.22001C8.55584 17.5482 9.3794 18.8592 10.5563 19.7991C11.7332 20.739 13.1939 21.2522 14.7 21.255C16.875 21.255 18.795 20.19 20.01 18.585L22.575 21.51C21.5942 22.6338 20.3836 23.534 19.0251 24.1499C17.6665 24.7658 16.1916 25.0829 14.7 25.08Z" fill="#1E1E1E"/>
</svg>
