<svg width="30" height="30" viewBox="0 0 30 30" fill="none" xmlns="http://www.w3.org/2000/svg">
<path d="M27.5 15V25.5113C27.5 26.2644 26.9406 26.875 26.25 26.875H3.75C3.05937 26.875 2.5 26.2644 2.5 25.5113V15L15 23.125L27.5 15Z" stroke="#1E1E1E" stroke-width="2" stroke-linejoin="round"/>
<path d="M2.5 14.865L8.75 10.5575M27.5 14.865L21.25 10.5575" stroke="#1E1E1E" stroke-width="2" stroke-linecap="round" stroke-linejoin="round"/>
<path d="M21.25 3.125H8.75V18.3844C8.74999 18.5926 8.80201 18.7976 8.90133 18.9806C9.00066 19.1637 9.14414 19.319 9.31875 19.4325L14.3187 22.6825C14.5215 22.8143 14.7582 22.8845 15 22.8845C15.2418 22.8845 15.4785 22.8143 15.6813 22.6825L20.6813 19.4325C20.8559 19.319 20.9993 19.1637 21.0987 18.9806C21.198 18.7976 21.25 18.5926 21.25 18.3844V3.125Z" stroke="#1E1E1E" stroke-width="2" stroke-linejoin="round"/>
<path d="M12.5 8.125H15M12.5 11.875H17.5" stroke="#1E1E1E" stroke-width="2" stroke-linecap="round" stroke-linejoin="round"/>
</svg>
