<svg width="30" height="30" viewBox="0 0 30 30" fill="none" xmlns="http://www.w3.org/2000/svg">
<path d="M15 4.6875C24.375 4.6875 30 15 30 15C30 15 24.375 25.3125 15 25.3125C5.625 25.3125 0 15 0 15C0 15 5.625 4.6875 15 4.6875ZM15 6.5625C8.4 6.5625 3.74625 12.6581 2.20312 15C3.74437 17.34 8.39813 23.4375 15 23.4375C21.6 23.4375 26.2537 17.3419 27.7969 15C26.2556 12.66 21.6019 6.5625 15 6.5625ZM15 8.4375C16.7405 8.4375 18.4097 9.1289 19.6404 10.3596C20.8711 11.5903 21.5625 13.2595 21.5625 15C21.5625 16.7405 20.8711 18.4097 19.6404 19.6404C18.4097 20.8711 16.7405 21.5625 15 21.5625C13.2595 21.5625 11.5903 20.8711 10.3596 19.6404C9.1289 18.4097 8.4375 16.7405 8.4375 15C8.4375 13.2595 9.1289 11.5903 10.3596 10.3596C11.5903 9.1289 13.2595 8.4375 15 8.4375ZM15 10.3125C13.7572 10.314 12.5658 10.8083 11.6871 11.6871C10.8083 12.5658 10.314 13.7572 10.3125 15C10.3125 17.5838 12.4144 19.6875 15 19.6875C17.5856 19.6875 19.6875 17.5838 19.6875 15C19.6875 12.4162 17.5856 10.3125 15 10.3125Z" fill="#1E1E1E"/>
</svg>
